<?xml version="1.0" standalone="no"?>
<!DOCTYPE svg PUBLIC "-//W3C//DTD SVG 20010904//EN"
 "http://www.w3.org/TR/2001/REC-SVG-20010904/DTD/svg10.dtd">
<svg version="1.0" xmlns="http://www.w3.org/2000/svg"
 width="1116.000000pt" height="894.000000pt" viewBox="0 0 1116.000000 894.000000"
 preserveAspectRatio="xMidYMid meet">

<g transform="translate(0.000000,894.000000) scale(0.100000,-0.100000)"
fill="#000000" stroke="none">
<path d="M3427 6993 c-4 -3 -7 -353 -7 -778 0 -586 3 -774 12 -783 13 -13 47
-16 72 -6 14 6 16 81 16 750 l0 744 23 5 c12 3 933 4 2047 3 l2025 -3 0 -1510
0 -1510 -1020 -5 -1020 -5 -3 -21 c-2 -11 3 -26 11 -32 11 -9 278 -11 1073
-10 l1059 3 5 140 c3 77 4 789 2 1583 l-2 1442 -2143 0 c-1179 0 -2147 -3
-2150 -7z"/>
<path d="M6714 6226 c-12 -9 -14 -31 -12 -115 l3 -104 85 -19 c127 -27 217
-75 282 -151 30 -34 62 -75 72 -90 21 -34 49 -119 65 -195 31 -152 -11 -374
-96 -504 l-18 -28 85 -85 c46 -47 90 -85 96 -85 23 0 83 80 128 171 45 93 56
135 77 304 15 119 -6 330 -43 430 -49 131 -179 297 -277 352 -25 14 -62 36
-81 49 -63 42 -333 93 -366 70z"/>
<path d="M4286 6195 c-7 -20 -9 -1172 -2 -1184 4 -5 43 -24 89 -41 45 -17 90
-35 99 -40 50 -28 68 27 78 255 10 209 13 986 4 1009 -9 23 -259 24 -268 1z"/>
<path d="M4866 6201 c-3 -4 46 -56 110 -115 l116 -106 313 0 314 0 3 93 c2 50
2 102 0 115 l-3 22 -424 0 c-233 0 -426 -4 -429 -9z"/>
<path d="M6071 5939 c-28 -33 -51 -65 -51 -70 0 -5 -13 -37 -28 -71 -63 -140
-72 -187 -72 -379 0 -171 6 -205 63 -347 85 -214 242 -358 461 -422 75 -22
125 -30 180 -30 l77 0 -3 118 -3 117 -35 2 c-115 8 -224 57 -308 137 -53 50
-119 160 -139 230 -10 34 -15 102 -15 202 0 168 9 211 69 320 18 33 33 68 33
77 0 19 -149 177 -166 177 -7 0 -35 -27 -63 -61z"/>
<path d="M4842 5208 l3 -583 443 -3 c320 -1 442 1 442 9 0 12 -164 197 -190
214 -8 6 -109 12 -225 15 l-210 5 -3 218 -2 217 137 1 c76 0 181 0 233 0 52
-1 121 1 153 5 l58 6 -3 112 -3 111 -292 3 -292 2 -28 38 c-15 20 -37 44 -48
52 -11 8 -51 47 -91 87 -39 40 -74 73 -77 73 -4 0 -6 -262 -5 -582z"/>
<path d="M3717 4987 c-81 -39 -88 -44 -83 -67 13 -70 138 -227 200 -251 17 -6
50 -20 73 -30 25 -11 66 -19 96 -19 l54 0 6 102 c6 115 -1 138 -41 138 -52 0
-109 46 -158 128 -15 23 -33 42 -42 41 -10 0 -57 -20 -105 -42z"/>
<path d="M2980 3481 c-6 -12 -10 -103 -10 -226 l0 -205 35 -17 c27 -13 38 -14
47 -5 16 16 23 424 8 452 -14 27 -66 27 -80 1z"/>
<path d="M3617 3488 c-20 -11 -22 -51 -4 -66 6 -5 23 -13 37 -17 30 -9 96 -70
114 -105 29 -56 27 -138 -6 -218 -12 -32 -12 -35 16 -58 27 -24 29 -24 48 -7
37 33 59 101 59 185 0 68 -4 85 -31 137 -18 33 -42 68 -53 79 -52 48 -151 87
-180 70z"/>
<path d="M4131 3481 c-7 -12 -11 -116 -11 -284 0 -292 0 -291 62 -285 l33 3 5
130 c3 72 3 202 0 290 l-5 160 -37 3 c-28 2 -39 -1 -47 -17z"/>
<path d="M4537 3494 c-4 -4 -7 -50 -7 -103 0 -148 6 -141 -111 -141 l-99 0
-41 -37 c-36 -33 -39 -38 -22 -44 10 -4 73 -8 140 -8 143 -1 132 12 136 -146
l2 -100 40 0 40 0 0 290 0 290 -35 3 c-20 2 -39 0 -43 -4z"/>
<path d="M5297 3493 c-4 -3 -7 -84 -7 -180 0 -192 -3 -198 -57 -140 -24 26
-105 101 -168 158 -22 19 -89 85 -113 112 -43 47 -67 29 -56 -42 5 -33 30 -61
198 -223 209 -202 265 -253 270 -247 8 8 10 544 3 557 -9 13 -59 17 -70 5z"/>
<path d="M5670 3486 c0 -8 16 -28 35 -45 35 -30 38 -31 138 -31 108 0 127 7
127 45 0 40 -17 45 -162 45 -111 0 -138 -3 -138 -14z"/>
<path d="M6225 3487 c-3 -7 -4 -138 -3 -292 l3 -280 116 -3 c113 -3 118 -2
148 24 53 44 43 53 -66 56 l-98 3 -5 240 c-3 132 -9 246 -13 253 -11 16 -76
16 -82 -1z"/>
<path d="M6785 3488 c-3 -7 -4 -139 -3 -293 l3 -280 45 0 45 0 0 290 0 290
-43 3 c-28 2 -44 -1 -47 -10z"/>
<path d="M7149 3477 c-7 -17 -8 -45 -3 -88 l9 -63 43 45 c37 39 42 49 40 84
-3 38 -4 40 -40 43 -32 3 -40 -1 -49 -21z"/>
<path d="M7930 3490 c0 -48 57 -80 142 -80 35 0 79 -5 99 -10 43 -12 116 -88
125 -129 13 -63 22 -72 62 -69 34 3 37 6 40 36 4 37 -32 122 -71 168 -15 17
-53 44 -84 60 -53 26 -69 29 -185 32 -93 3 -128 1 -128 -8z"/>
<path d="M7545 3458 c-2 -7 -6 -98 -7 -201 l-3 -189 -32 -28 c-56 -50 -118
-56 -205 -22 -32 13 -58 86 -58 164 0 26 -4 48 -9 48 -23 0 -42 -14 -62 -46
-17 -29 -20 -43 -14 -87 13 -91 55 -143 138 -171 108 -36 225 -10 286 63 54
66 61 95 61 261 l0 147 -32 29 c-46 42 -57 47 -63 32z"/>
<path d="M3345 3353 c-25 -43 -27 -58 -28 -153 0 -118 6 -138 73 -208 43 -46
132 -85 180 -80 21 3 25 8 25 38 0 32 -3 35 -48 51 -69 25 -95 44 -114 87 -20
45 -23 196 -5 214 17 17 15 44 -4 73 -25 38 -49 31 -79 -22z"/>
<path d="M5642 3118 l3 -203 153 -3 c83 -1 152 0 152 3 0 4 -12 22 -26 40 -25
33 -28 34 -102 37 l-77 3 -6 65 c-3 36 -3 71 -1 78 3 8 30 12 89 12 94 0 123
10 123 43 0 40 -18 47 -119 47 l-94 0 -34 40 c-61 71 -64 65 -61 -162z"/>
<path d="M7904 3257 c-2 -7 -3 -87 -2 -177 l3 -165 155 0 c142 1 159 3 203 24
55 27 73 52 57 81 -22 41 -47 44 -96 11 -48 -31 -147 -50 -199 -37 -24 6 -25
8 -25 100 l0 93 -41 41 c-45 46 -47 48 -55 29z"/>
<path d="M4932 3017 c-24 -25 -32 -42 -32 -71 0 -37 0 -37 38 -34 l37 3 3 59
c2 32 -1 63 -5 67 -5 5 -23 -6 -41 -24z"/>
<path d="M2749 3024 c-20 -24 7 -64 62 -93 54 -29 79 -24 79 17 0 21 -10 37
-39 60 -44 35 -81 41 -102 16z"/>
</g>
</svg>
